<svg xmlns="http://www.w3.org/2000/svg" width="105.125" height="79.971" viewBox="0 0 105.125 79.971"><circle fill="#E9EAEB" cx="52" cy="48.971" r="20"/><path fill="none" stroke="#D8D8D8" stroke-width="2" stroke-miterlimit="10" d="M29.657 65.902a27.847 27.847 0 0 1-5.602-16.795c0-15.448 12.523-27.972 27.973-27.972C67.477 21.135 80 33.659 80 49.107a27.842 27.842 0 0 1-5.604 16.798"/><path fill="#FFF" stroke="#2A5082" stroke-width="2" stroke-miterlimit="10" d="M52 54.971c2.292 0 6.438-3.063 7-4s.775-1.863 1-3c.053-.27.828-1.771 1-2 .942-1.253 1-5 1-5l-1-1s-.244-3.141-.383-4.681c-.575-4.498-3.674-7.319-8.617-7.319s-8.042 2.822-8.617 7.319c-.139 1.541-.383 4.681-.383 4.681l-1 1s.058 3.747 1 5c.172.229.947 1.73 1 2 .224 1.137.438 2.063 1 3s4.708 4 7 4z"/><path fill="#2DC1E5" stroke="#2A5082" stroke-width="2" stroke-miterlimit="10" d="M52 74.971c7.004 0 13.39-2.432 18-7v-4c-.561-2.002-2.162-3.026-4-4l-7-3s-3.604 3-7 3-6-3-6-3l-8 3c-1.838.974-3.439 1.998-4 4v4c4.61 4.569 10.996 7 18 7z"/><path fill="none" stroke="#2A5082" stroke-width="2" stroke-miterlimit="10" d="M46 56.971v-5M58 57.565v-5.594"/><ellipse fill="#EE5456" cx="12.771" cy="43.409" rx="2.104" ry="2.063"/><path fill="#EE5456" d="M86.028 32.771l-.384 1.134.715.959-1.196-.015-.692.977-.355-1.143-1.143-.355.977-.692-.015-1.197.959.716z"/><path fill="#2EC3E6" d="M29.75 14.596l-.667-.226-.564.421.008-.704-.575-.407.673-.209.209-.672.407.575.704-.009-.422.564z"/><circle fill="none" stroke="#2EC3E6" stroke-miterlimit="10" cx="15.25" cy="18.471" r="1.125"/><circle fill="#2EC3E6" cx="89.75" cy="47.221" r="1.25"/><circle fill="#2EC3E6" cx="71.688" cy="18.784" r="1.688"/><path fill="#CECECE" d="M37 7.971h1v1h-1zM84.61 58.513l2.85-.934.935 2.85-2.851.935zM14.334 57.805h2v2h-2z"/><path fill="none" stroke="#CECECE" stroke-miterlimit="10" d="M15.59 33.043l1.34-1.484 1.484 1.342-1.34 1.483z" stroke-width="1.00006"/><path fill="#2EC3E6" d="M48.406 10.806l1.76-2.43 2.43 1.76-1.76 2.43z"/><circle fill="#FDDB00" cx="88.834" cy="21.638" r="1.5"/><circle fill="#FDDB00" cx="26.583" cy="23.555" r=".75"/><circle fill="#FDDB00" cx="63.625" cy="8.763" r="1.042"/><path fill="#FDDB00" d="M21.118 11.668l.587.419.68-.246-.218.689.443.569-.721.005-.404.599-.229-.685-.694-.199.581-.43z"/><path fill="#D8D8D8" d="M82.083 10.138l-.355.949-1 .167-.645-.782.355-.95 1-.167zM40.083 17.305l-1.264.521-1.083-.834.181-1.354 1.264-.521 1.083.833zM61.417 16.221l-.869.173-.584-.667.285-.839.869-.172.584.666zM94 36.555l-1.036.46-.917-.667.119-1.127 1.036-.461.917.667z"/></svg>